<svg id="Слой_1" data-name="Слой 1" xmlns="http://www.w3.org/2000/svg" viewBox="0 0 1064.98 472.66"><title>мрія</title><path d="M611.32,854.15v192.19a5,5,0,0,0,3.61,4.72l95.19,31c3.51,1.15,7.19-1.27,7.19-4.72V821.47c0-3.49-3.75-5.9-7.28-4.69l-95.18,32.68a5,5,0,0,0-3.53,4.69m80.64,196-64.31-15.25a5.09,5.09,0,0,1-4.06-4.85V871.17a5.08,5.08,0,0,1,3.9-4.81l65.24-17.42c3.46-.92,6.9,1.5,6.89,4.83l-.92,191.59c0,3.26-3.33,5.63-6.74,4.82" transform="translate(-524.29 -782.02)" style="fill:#6cc"/><path d="M733,821.47v255.92c0,3.45,3.68,5.87,7.19,4.72l95.19-31a5,5,0,0,0,3.61-4.72V854.15a5,5,0,0,0-3.53-4.69l-95.19-32.68c-3.52-1.22-7.27,1.2-7.27,4.69m24.58,27.47,65.24,17.42a5.08,5.08,0,0,1,3.9,4.81v158.91a5.09,5.09,0,0,1-4.06,4.85l-64.31,15.25c-3.41.81-6.72-1.56-6.74-4.82l-.92-191.59c0-3.34,3.43-5.75,6.89-4.83" transform="translate(-524.29 -782.02)" style="fill:#6cc"/><path d="M596.6,1059.69V844.59a5,5,0,0,1,3.28-4.6l48-19a4.87,4.87,0,0,0-.12-9.25l-116-29.39c-3.55-1.31-7.4,1.11-7.4,4.64l.76,462.64c0,3.66,4.08,6.08,7.66,4.55l181.95-63.63a5,5,0,0,0,3.14-4.54v-80.12a5.06,5.06,0,0,0-3.62-4.73l-113.95-36.77a5.06,5.06,0,0,1-3.63-4.73m-42.9-11.94h0c-3.58,1.51-7.64-.92-7.64-4.56v-31.48c0-3.47,3.73-5.88,7.25-4.7a5,5,0,0,1,3.55,4.7v31.48a5,5,0,0,1-3.16,4.56" transform="translate(-524.29 -782.02)" style="fill:#6cc"/><path d="M1041.13,934.25l-45.28,70.2a3.89,3.89,0,0,1-3.29,1.74H954.37a3.92,3.92,0,0,1-3.3-1.74l-45.27-70.2c-2-3.11-7.14-1.79-7.14,1.84v112a3.72,3.72,0,0,1-3.85,3.58H860a3.72,3.72,0,0,1-3.85-3.58V853.61A3.72,3.72,0,0,1,860,850h36.48a3.91,3.91,0,0,1,3.33,1.77L970.14,964.3a4,4,0,0,0,6.65,0l70.37-112.49a3.9,3.9,0,0,1,3.32-1.77H1087a3.71,3.71,0,0,1,3.84,3.57v194.46a3.72,3.72,0,0,1-3.84,3.58h-34.85a3.72,3.72,0,0,1-3.85-3.58v-112c0-3.63-5.14-5-7.14-1.84" transform="translate(-524.29 -782.02)" style="fill:#fff"/><path d="M1165.37,1051.65h-34.85a3.72,3.72,0,0,1-3.85-3.58V853.61a3.72,3.72,0,0,1,3.85-3.57h91.88a80.58,80.58,0,0,1,29.25,5.27,76.36,76.36,0,0,1,23.75,14.33,67.94,67.94,0,0,1,15.95,21.08,58.63,58.63,0,0,1,0,51.06,67.86,67.86,0,0,1-15.95,21.09,76.36,76.36,0,0,1-23.75,14.33,80.58,80.58,0,0,1-29.25,5.27h-49.34a3.71,3.71,0,0,0-3.84,3.57v62a3.72,3.72,0,0,1-3.85,3.58m57-106.08q13.83,0,23-8.4a28.34,28.34,0,0,0,0-41.84q-9.23-8.4-23-8.4h-49.34a3.72,3.72,0,0,0-3.84,3.58V942a3.71,3.71,0,0,0,3.84,3.57Z" transform="translate(-524.29 -782.02)" style="fill:#fff"/><path d="M1371,1051.65h-34.86a3.71,3.71,0,0,1-3.84-3.57V853.61a3.71,3.71,0,0,1,3.84-3.57H1371a3.71,3.71,0,0,1,3.84,3.57v194.47a3.71,3.71,0,0,1-3.84,3.57" transform="translate(-524.29 -782.02)" style="fill:#fff"/><path d="M1466.21,982.88a3.46,3.46,0,0,0-1.46-5.52,92.82,92.82,0,0,1-15.52-8.23,73.06,73.06,0,0,1-16-14.17,65.25,65.25,0,0,1-10.63-18,55.85,55.85,0,0,1-3.9-20.76,57.63,57.63,0,0,1,5.85-25.53,68.25,68.25,0,0,1,16-21.08,76.3,76.3,0,0,1,23.76-14.33,80.5,80.5,0,0,1,29.25-5.27h91.87a3.72,3.72,0,0,1,3.85,3.57v194.46a3.72,3.72,0,0,1-3.85,3.58h-34.85a3.72,3.72,0,0,1-3.84-3.58V890.51a3.72,3.72,0,0,0-3.85-3.58h-49.33a35.25,35.25,0,0,0-22.52,7.74q-9.75,7.76-9.75,24.22,0,17.46,11.17,24.7t28.19,7.25H1538c3.23,0,5,3.47,3,5.81l-80.7,93.66a4,4,0,0,1-3,1.34h-42.92c-3.24,0-5-3.49-3-5.82Z" transform="translate(-524.29 -782.02)" style="fill:#fff"/><path d="M784.87,1186.66c-1.63,0-3.52-.07-5.66-.2s-4.36-.33-6.68-.59-4.63-.57-6.95-.92c-1.79-.27-3.46-.57-5-.89a1.65,1.65,0,0,1-1.33-1.6V1171a1.66,1.66,0,0,1,2-1.59c1.09.23,2.3.43,3.63.62q3.33.46,7,.79t7.43.52c2.5.14,4.79.2,6.89.2q5.71,0,8-1.12t2.25-5.33q0-3.55-2.31-5.14t-8-1.58H768.69a1.65,1.65,0,0,1-1.68-1.63V1148a1.65,1.65,0,0,1,1.68-1.63h16.59c3.45,0,5.87-.5,7.23-1.51s2-2.66,2-4.94-.66-3.75-2-4.41-3.57-1-6.75-1q-2.87,0-6.48.2t-7.09.59q-3.48.39-6.61.86c-1.13.16-2.13.33-3,.51a1.66,1.66,0,0,1-2-1.59v-11.53a1.63,1.63,0,0,1,1.29-1.59c1.46-.32,3-.61,4.71-.88q3.27-.52,6.55-.93t6.4-.59c2.09-.13,3.91-.2,5.46-.2a45.17,45.17,0,0,1,10.23,1.12,26.34,26.34,0,0,1,8.25,3.36,16.58,16.58,0,0,1,5.45,5.67,15.75,15.75,0,0,1,2,8q0,7.89-5.67,12a1.6,1.6,0,0,0,.3,2.72,14.33,14.33,0,0,1,4.82,3.68q2.46,3,2.46,9,0,10.27-7.16,16t-20.8,5.73" transform="translate(-524.29 -782.02)" style="fill:#fff"/><path d="M821.82,1152.81a36.45,36.45,0,0,1,2.32-13,30.15,30.15,0,0,1,6.82-10.67,32.27,32.27,0,0,1,11-7.18,42.88,42.88,0,0,1,28.9-.26,30.46,30.46,0,0,1,10.71,6.71,30.87,30.87,0,0,1,7,10.6,40.88,40.88,0,0,1,2.8,13.9q.14,2.5.13,6.13c0,2.41.14,5.07.41,8a74.77,74.77,0,0,0,1.5,9.16,45.74,45.74,0,0,0,2.41,7.45,1.63,1.63,0,0,1-1.55,2.23H881.56a1.69,1.69,0,0,1-1.55-1,45.23,45.23,0,0,1-2.16-5.93,1.7,1.7,0,0,0-2.88-.66,25.71,25.71,0,0,1-6.92,5.32,27.59,27.59,0,0,1-13.09,2.9,33.43,33.43,0,0,1-13.36-2.64,31.6,31.6,0,0,1-10.5-7.17,33,33,0,0,1-6.82-10.67,35.23,35.23,0,0,1-2.46-13.24m35-18.7a22.8,22.8,0,0,0-8.59,1.44,15.23,15.23,0,0,0-5.8,4,15.79,15.79,0,0,0-3.27,6,27.17,27.17,0,0,0,0,14.75,15.82,15.82,0,0,0,3.27,6,15.23,15.23,0,0,0,5.8,4,22.79,22.79,0,0,0,8.59,1.45c5.63,0,10.07-1.52,13.29-4.55s4.84-7.79,4.84-14.29q-.4-8.68-4.63-13.76t-13.5-5.07" transform="translate(-524.29 -782.02)" style="fill:#fff"/><path d="M904.19,1125.68a35,35,0,0,1,2.52-13.57,29.14,29.14,0,0,1,7.16-10.34,33.49,33.49,0,0,1,11.25-6.72,47.59,47.59,0,0,1,14.93-2.7c1.54-.08,3.43-.13,5.66-.13s4.66-.13,7.29-.39a63,63,0,0,0,8.32-1.45,38,38,0,0,0,6.34-2.16,1.68,1.68,0,0,1,2.39,1.47v11.13a1.64,1.64,0,0,1-.94,1.47,41.29,41.29,0,0,1-8.06,2.84,67.63,67.63,0,0,1-8.46,1.45q-3.95.39-7.22.39c-2.19,0-4,0-5.32.13q-9,.4-14.25,4.75t-5.25,13.83v2a26.46,26.46,0,0,1,8.45-6.06,27.8,27.8,0,0,1,11.59-2.24,32.76,32.76,0,0,1,23.8,9.82,32.4,32.4,0,0,1,6.89,10.67,35.33,35.33,0,0,1,2.45,13.23,37.18,37.18,0,0,1-2.18,12.65,29.85,29.85,0,0,1-6.62,10.67,32.53,32.53,0,0,1-11,7.37,42.95,42.95,0,0,1-30,.13,31.6,31.6,0,0,1-10.84-7.18,29.73,29.73,0,0,1-6.68-10.66,37.74,37.74,0,0,1-2.25-13.11Zm34.49,46.1a22.88,22.88,0,0,0,8.6-1.45,15.27,15.27,0,0,0,5.79-4,15.82,15.82,0,0,0,3.27-6,27,27,0,0,0,0-14.76,15.82,15.82,0,0,0-3.27-6,15.27,15.27,0,0,0-5.79-4,22.89,22.89,0,0,0-8.6-1.44q-8.45,0-13.29,4.54t-4.84,14.29q0,9.75,4.84,14.29t13.29,4.55" transform="translate(-524.29 -782.02)" style="fill:#fff"/><path d="M1017.37,1171.78q8.72,0,13.22-5.27t4.5-13.57v-31.3a1.66,1.66,0,0,1,1.69-1.63h13a1.66,1.66,0,0,1,1.69,1.63v60.8a37.41,37.41,0,0,1-2.32,13.18,30.13,30.13,0,0,1-6.82,10.73,32.27,32.27,0,0,1-11,7.18,40,40,0,0,1-15,2.63,85.88,85.88,0,0,1-11.11-.72,54.82,54.82,0,0,1-8.72-1.81,1.62,1.62,0,0,1-1.17-1.55V1199.6a1.68,1.68,0,0,1,2.3-1.51,38.13,38.13,0,0,0,6.77,1.81,63.84,63.84,0,0,0,11.12,1,26,26,0,0,0,9.34-1.45,15.89,15.89,0,0,0,6.07-4,14.31,14.31,0,0,0,3.27-5.86,26.88,26.88,0,0,0,.95-7.31,1.7,1.7,0,0,0-2.79-1.23,24.76,24.76,0,0,1-5.53,3.34,27.37,27.37,0,0,1-11.18,2.11,29.7,29.7,0,0,1-22.5-9.82,31.63,31.63,0,0,1-6.27-10.66,38.91,38.91,0,0,1-2.18-13.11v-31.3a1.66,1.66,0,0,1,1.69-1.63h13a1.65,1.65,0,0,1,1.68,1.63v31.3q0,8.43,3.82,13.63t12.55,5.21" transform="translate(-524.29 -782.02)" style="fill:#fff"/><path d="M1062,1202.68v-28.75a1.66,1.66,0,0,1,1.69-1.63h4.9a1.65,1.65,0,0,0,1.51-.91,61.53,61.53,0,0,0,4.86-15.55,142.38,142.38,0,0,0,2-24.76v-9.44a1.66,1.66,0,0,1,1.69-1.63H1125a1.66,1.66,0,0,1,1.69,1.63v49a1.65,1.65,0,0,0,1.68,1.63h6.45a1.65,1.65,0,0,1,1.68,1.63v28.75a1.65,1.65,0,0,1-1.68,1.63h-12.45a1.65,1.65,0,0,1-1.68-1.63V1187.5a1.66,1.66,0,0,0-1.69-1.63h-39.31a1.66,1.66,0,0,0-1.69,1.63v15.18a1.65,1.65,0,0,1-1.68,1.63h-12.72a1.66,1.66,0,0,1-1.69-1.63m48.41-32v-35.46a1.65,1.65,0,0,0-1.68-1.63h-15a1.65,1.65,0,0,0-1.68,1.62,154.08,154.08,0,0,1-1.29,19.52,100.15,100.15,0,0,1-3.36,15.51,1.63,1.63,0,0,0,1.62,2.07h19.76a1.65,1.65,0,0,0,1.68-1.63" transform="translate(-524.29 -782.02)" style="fill:#fff"/><path d="M1144,1152.94a36.59,36.59,0,0,1,2.32-13.1,30,30,0,0,1,6.82-10.67,32.45,32.45,0,0,1,11-7.18,42,42,0,0,1,29.31,0,32.45,32.45,0,0,1,11,7.18,30.15,30.15,0,0,1,6.82,10.67,38.17,38.17,0,0,1,0,26.21,30.33,30.33,0,0,1-6.82,10.67,32.43,32.43,0,0,1-11,7.17,42,42,0,0,1-29.31,0,32.43,32.43,0,0,1-11-7.17,30.19,30.19,0,0,1-6.82-10.67,36.64,36.64,0,0,1-2.32-13.11m16.37,0a25.71,25.71,0,0,0,1,7.38,15.82,15.82,0,0,0,3.27,6,15.36,15.36,0,0,0,5.73,4,25,25,0,0,0,16.77,0,15.36,15.36,0,0,0,5.73-4,15.82,15.82,0,0,0,3.27-6,27.17,27.17,0,0,0,0-14.75,15.79,15.79,0,0,0-3.27-6,15.36,15.36,0,0,0-5.73-4,25.13,25.13,0,0,0-16.77,0,15.36,15.36,0,0,0-5.73,4,15.79,15.79,0,0,0-3.27,6,25.69,25.69,0,0,0-1,7.37" transform="translate(-524.29 -782.02)" style="fill:#fff"/><path d="M1226,1184.24v-62.6a1.66,1.66,0,0,1,1.69-1.63h30.09q12.27,0,18.34,4.22t6.06,13.3q0,7.89-5.66,12a1.59,1.59,0,0,0,.29,2.71,14.23,14.23,0,0,1,4.83,3.75c1.64,2.06,2.45,5.07,2.45,9q0,10.14-6.41,15.48t-19.36,5.33h-30.63a1.66,1.66,0,0,1-1.69-1.63m16.37-39.51a1.65,1.65,0,0,0,1.68,1.63h12.5q5.18,0,7.23-1.52c1.36-1,2-2.65,2-4.94s-.66-4-2-5-3.57-1.58-6.75-1.58h-13a1.65,1.65,0,0,0-1.68,1.62Zm0,26.21a1.65,1.65,0,0,0,1.68,1.63h13.18q5.73,0,8.11-1.58t2.39-5.4c0-2.55-.77-4.39-2.32-5.54s-4.23-1.71-8-1.71H1244a1.65,1.65,0,0,0-1.68,1.63Z" transform="translate(-524.29 -782.02)" style="fill:#fff"/><path d="M1311.71,1185.87h-13a1.65,1.65,0,0,1-1.68-1.63v-62.6a1.65,1.65,0,0,1,1.68-1.63h13a1.66,1.66,0,0,1,1.69,1.63v22.43a1.66,1.66,0,0,0,1.69,1.63h26.62a1.66,1.66,0,0,0,1.69-1.63v-22.43a1.65,1.65,0,0,1,1.68-1.63h13a1.65,1.65,0,0,1,1.68,1.63v62.6a1.65,1.65,0,0,1-1.68,1.63h-13a1.65,1.65,0,0,1-1.68-1.63v-22.43a1.66,1.66,0,0,0-1.69-1.63h-26.62a1.66,1.66,0,0,0-1.69,1.63v22.43a1.66,1.66,0,0,1-1.69,1.63" transform="translate(-524.29 -782.02)" style="fill:#fff"/><path d="M1391.6,1185.87h-13.79a1.66,1.66,0,0,1-1.69-1.63v-62.6a1.66,1.66,0,0,1,1.69-1.63h13a1.66,1.66,0,0,1,1.69,1.63v35.28a1.69,1.69,0,0,0,3.07.92l26.42-37.12a1.73,1.73,0,0,1,1.39-.71h13.79a1.66,1.66,0,0,1,1.69,1.63v62.6a1.66,1.66,0,0,1-1.69,1.63h-13a1.65,1.65,0,0,1-1.68-1.63V1149a1.7,1.7,0,0,0-3.08-.92L1393,1185.16a1.7,1.7,0,0,1-1.39.71" transform="translate(-524.29 -782.02)" style="fill:#fff"/><path d="M1469.89,1185.87h-13a1.66,1.66,0,0,1-1.69-1.63v-62.6a1.66,1.66,0,0,1,1.69-1.63h13a1.66,1.66,0,0,1,1.69,1.63v62.6a1.66,1.66,0,0,1-1.69,1.63m2.75-33.92,25-31.3a1.71,1.71,0,0,1,1.33-.64h14.7a1.63,1.63,0,0,1,1.33,2.63L1491.6,1152a1.58,1.58,0,0,0,0,2l23.42,29.31a1.62,1.62,0,0,1-1.33,2.62H1499a1.73,1.73,0,0,1-1.33-.63l-25-31.3a1.58,1.58,0,0,1,0-2" transform="translate(-524.29 -782.02)" style="fill:#fff"/></svg>