<svg id="Layer_1" data-name="Layer 1" xmlns="http://www.w3.org/2000/svg" viewBox="0 0 300 132.65"><defs><style>.cls-1{fill:#6cc;}.cls-2{fill:#fff;}</style></defs><path class="cls-1" d="M24.42,20.24V74.18a1.4,1.4,0,0,0,1,1.32l26.71,8.72a1.51,1.51,0,0,0,2-1.33V11.07a1.51,1.51,0,0,0-2-1.32L25.41,18.93A1.41,1.41,0,0,0,24.42,20.24Zm22.64,55L29,71a1.43,1.43,0,0,1-1.14-1.36V25A1.41,1.41,0,0,1,29,23.67l18.31-4.89a1.49,1.49,0,0,1,1.93,1.36L49,73.9A1.5,1.5,0,0,1,47.06,75.26Z"/><path class="cls-1" d="M58.58,11.07V82.89a1.51,1.51,0,0,0,2,1.33L87.31,75.5a1.39,1.39,0,0,0,1-1.32V20.24a1.4,1.4,0,0,0-1-1.31L60.62,9.75A1.51,1.51,0,0,0,58.58,11.07Zm6.9,7.71,18.3,4.89A1.42,1.42,0,0,1,84.88,25v44.6A1.43,1.43,0,0,1,83.74,71l-18,4.28A1.49,1.49,0,0,1,63.8,73.9l-.26-53.76A1.5,1.5,0,0,1,65.48,18.78Z"/><path class="cls-1" d="M20.29,77.93V17.56a1.42,1.42,0,0,1,.92-1.29L34.68,11a1.37,1.37,0,0,0,0-2.6L2.08.1A1.51,1.51,0,0,0,0,1.41L.21,131.24a1.51,1.51,0,0,0,2.15,1.27l51.07-17.85a1.41,1.41,0,0,0,.87-1.28V90.9a1.41,1.41,0,0,0-1-1.33l-32-10.32A1.41,1.41,0,0,1,20.29,77.93Zm-12-3.36h0A1.5,1.5,0,0,1,6.11,73.3V64.46a1.51,1.51,0,0,1,2-1.32h0a1.41,1.41,0,0,1,1,1.32V73.3A1.39,1.39,0,0,1,8.25,74.57Z"/><path class="cls-2" d="M145,42.72l-12.7,19.7a1.1,1.1,0,0,1-.93.49H120.7a1.1,1.1,0,0,1-.93-.49l-12.7-19.7a1.1,1.1,0,0,0-2,.52V74.67a1,1,0,0,1-1.08,1H94.2a1,1,0,0,1-1.08-1V20.09a1,1,0,0,1,1.08-1h10.24a1.09,1.09,0,0,1,.93.5l19.75,31.57a1.13,1.13,0,0,0,1.87,0l19.75-31.57a1.08,1.08,0,0,1,.93-.5h10.24a1,1,0,0,1,1.08,1V74.67a1,1,0,0,1-1.08,1h-9.78a1,1,0,0,1-1.08-1V43.24A1.1,1.1,0,0,0,145,42.72Z"/><path class="cls-2" d="M179.91,75.67h-9.78a1,1,0,0,1-1.08-1V20.09a1,1,0,0,1,1.08-1h25.78a22.5,22.5,0,0,1,8.21,1.48,21.36,21.36,0,0,1,6.67,4,19.28,19.28,0,0,1,4.48,5.92,16.47,16.47,0,0,1,0,14.33,19.12,19.12,0,0,1-4.48,5.91,21.39,21.39,0,0,1-6.67,4,22.7,22.7,0,0,1-8.21,1.47H182.07a1,1,0,0,0-1.08,1V74.67A1,1,0,0,1,179.91,75.67Zm16-29.77a9.24,9.24,0,0,0,6.47-2.36,7.95,7.95,0,0,0,0-11.74,9.24,9.24,0,0,0-6.47-2.36H182.07a1,1,0,0,0-1.08,1V44.9a1,1,0,0,0,1.08,1Z"/><path class="cls-2" d="M237.62,75.67h-9.78a1,1,0,0,1-1.08-1V20.09a1,1,0,0,1,1.08-1h9.78a1,1,0,0,1,1.08,1V74.67A1,1,0,0,1,237.62,75.67Z"/><path class="cls-2" d="M264.34,56.37a1,1,0,0,0-.41-1.55,26.2,26.2,0,0,1-4.36-2.31,20.41,20.41,0,0,1-4.48-4,18.22,18.22,0,0,1-3-5A15.72,15.72,0,0,1,251,37.67a16.09,16.09,0,0,1,1.64-7.16,19.09,19.09,0,0,1,4.47-5.92,21.48,21.48,0,0,1,6.67-4A22.5,22.5,0,0,1,272,19.09h25.78a1,1,0,0,1,1.08,1V74.67a1,1,0,0,1-1.08,1H288a1,1,0,0,1-1.08-1V30.45a1,1,0,0,0-1.08-1H272a9.86,9.86,0,0,0-6.32,2.18c-1.82,1.44-2.74,3.71-2.74,6.79q0,4.91,3.14,6.93a14.21,14.21,0,0,0,7.91,2h10.49a1,1,0,0,1,.84,1.63L262.68,75.29a1.09,1.09,0,0,1-.84.38h-12A1,1,0,0,1,249,74Z"/><path class="cls-2" d="M73.13,113.56q-.69,0-1.59-.06c-.6,0-1.22-.09-1.87-.16s-1.31-.16-2-.26c-.5-.08-1-.16-1.4-.25a.47.47,0,0,1-.38-.45v-3.23a.47.47,0,0,1,.58-.44c.3.06.64.12,1,.17.63.09,1.28.16,2,.22s1.39.11,2.09.15,1.34.06,1.93.06a5.52,5.52,0,0,0,2.24-.32c.42-.21.63-.71.63-1.49a1.64,1.64,0,0,0-.65-1.45,4.27,4.27,0,0,0-2.26-.44H68.59a.46.46,0,0,1-.47-.46V102.7a.46.46,0,0,1,.47-.45h4.65a3.49,3.49,0,0,0,2-.43,1.61,1.61,0,0,0,.58-1.38c0-.64-.19-1.06-.56-1.24a4.49,4.49,0,0,0-1.89-.28c-.54,0-1.15,0-1.82.06s-1.34.09-2,.16l-1.86.24-.84.15a.47.47,0,0,1-.57-.45V95.84a.46.46,0,0,1,.36-.44c.41-.09.85-.17,1.32-.25s1.23-.18,1.84-.26,1.21-.13,1.8-.16,1.09-.06,1.53-.06A12.56,12.56,0,0,1,76,95a7.32,7.32,0,0,1,2.31,1,4.65,4.65,0,0,1,1.53,1.59,4.42,4.42,0,0,1,.56,2.25,3.93,3.93,0,0,1-1.59,3.38.45.45,0,0,0,.08.76,4,4,0,0,1,1.35,1,3.89,3.89,0,0,1,.69,2.51A5.43,5.43,0,0,1,79,112,9.14,9.14,0,0,1,73.13,113.56Z"/><path class="cls-2" d="M83.5,104.06a10.26,10.26,0,0,1,.65-3.64,8.41,8.41,0,0,1,1.91-3,9,9,0,0,1,3.1-2,11.19,11.19,0,0,1,4.17-.74,11,11,0,0,1,4,.67,8.29,8.29,0,0,1,5,4.86,11.71,11.71,0,0,1,.79,3.9c0,.46,0,1,0,1.71s0,1.43.12,2.24a21.75,21.75,0,0,0,.42,2.57,12.4,12.4,0,0,0,.68,2.09.47.47,0,0,1-.44.63h-3.57a.47.47,0,0,1-.43-.28,12.22,12.22,0,0,1-.61-1.66.48.48,0,0,0-.81-.19,7.15,7.15,0,0,1-1.94,1.5,7.74,7.74,0,0,1-3.67.81,9.3,9.3,0,0,1-3.75-.74,8.88,8.88,0,0,1-3-2,9.16,9.16,0,0,1-1.91-3A9.83,9.83,0,0,1,83.5,104.06Zm9.83-5.25a6.43,6.43,0,0,0-2.41.41,4.24,4.24,0,0,0-1.62,1.12,4.41,4.41,0,0,0-.92,1.69,7.24,7.24,0,0,0-.29,2.07,7.34,7.34,0,0,0,.29,2.07,4.44,4.44,0,0,0,.92,1.68A4.24,4.24,0,0,0,90.92,109a6.23,6.23,0,0,0,2.41.41,4.62,4.62,0,0,0,5.09-5.28,6.31,6.31,0,0,0-1.3-3.87A4.65,4.65,0,0,0,93.33,98.81Z"/><path class="cls-2" d="M106.61,96.44a9.82,9.82,0,0,1,.71-3.8,8.17,8.17,0,0,1,2-2.91,9.44,9.44,0,0,1,3.16-1.88,13.14,13.14,0,0,1,4.19-.76q.64,0,1.59,0a19.09,19.09,0,0,0,2-.12,16.39,16.39,0,0,0,2.34-.4,11.25,11.25,0,0,0,1.77-.61.48.48,0,0,1,.68.42v3.12a.47.47,0,0,1-.27.41,11.32,11.32,0,0,1-2.26.8,17.26,17.26,0,0,1-2.37.4,19.06,19.06,0,0,1-2,.12c-.61,0-1.11,0-1.49,0a6.59,6.59,0,0,0-4,1.33,4.78,4.78,0,0,0-1.48,3.88V97a7.39,7.39,0,0,1,2.38-1.7,7.75,7.75,0,0,1,3.25-.63,9.3,9.3,0,0,1,3.73.74,9,9,0,0,1,4.88,5,9.83,9.83,0,0,1,.69,3.71,10.6,10.6,0,0,1-.61,3.55,8.37,8.37,0,0,1-1.86,3,9,9,0,0,1-3.08,2.07,12,12,0,0,1-8.42,0,8.87,8.87,0,0,1-3-2,8.34,8.34,0,0,1-1.88-3,10.56,10.56,0,0,1-.63-3.67Zm9.68,12.94a6.25,6.25,0,0,0,2.42-.41,4.24,4.24,0,0,0,1.62-1.12,4.44,4.44,0,0,0,.92-1.68,7.34,7.34,0,0,0,.29-2.07,7.24,7.24,0,0,0-.29-2.07,4.41,4.41,0,0,0-.92-1.69,4.24,4.24,0,0,0-1.62-1.12,6.44,6.44,0,0,0-2.42-.41,5.24,5.24,0,0,0-3.73,1.27,6.61,6.61,0,0,0,0,8A5.24,5.24,0,0,0,116.29,109.38Z"/><path class="cls-2" d="M138.38,109.38a4.6,4.6,0,0,0,3.71-1.48,5.64,5.64,0,0,0,1.26-3.8V95.31a.47.47,0,0,1,.47-.46h3.65a.47.47,0,0,1,.47.46v17.07a10.53,10.53,0,0,1-.65,3.69,8.36,8.36,0,0,1-1.91,3,9.05,9.05,0,0,1-3.1,2,11.29,11.29,0,0,1-4.21.74,23.14,23.14,0,0,1-3.12-.21,14.91,14.91,0,0,1-2.45-.5.46.46,0,0,1-.32-.44v-3.5a.46.46,0,0,1,.64-.42,11.32,11.32,0,0,0,1.9.5,17.16,17.16,0,0,0,3.12.28,7.31,7.31,0,0,0,2.62-.41,4.41,4.41,0,0,0,1.7-1.11,3.86,3.86,0,0,0,.92-1.64,7.42,7.42,0,0,0,.27-2h0a.48.48,0,0,0-.78-.35,7,7,0,0,1-1.55.94,7.82,7.82,0,0,1-3.14.59,8.31,8.31,0,0,1-3.56-.74,8.4,8.4,0,0,1-2.76-2,9,9,0,0,1-1.76-3,10.79,10.79,0,0,1-.61-3.67V95.31a.47.47,0,0,1,.47-.46h3.65a.47.47,0,0,1,.47.46v8.79a6.33,6.33,0,0,0,1.07,3.82A4.1,4.1,0,0,0,138.38,109.38Z"/><path class="cls-2" d="M150.89,118.05V110a.46.46,0,0,1,.47-.46h1.38a.47.47,0,0,0,.42-.26,16.88,16.88,0,0,0,1.36-4.36,40,40,0,0,0,.58-7V95.31a.47.47,0,0,1,.47-.46h13a.48.48,0,0,1,.48.46v13.76a.47.47,0,0,0,.47.46h1.81a.46.46,0,0,1,.47.46v8.06a.46.46,0,0,1-.47.46h-3.5a.46.46,0,0,1-.47-.46v-4.26a.46.46,0,0,0-.47-.45h-11a.47.47,0,0,0-.48.45v4.26a.46.46,0,0,1-.47.46h-3.57A.46.46,0,0,1,150.89,118.05Zm13.58-9V99.12a.47.47,0,0,0-.47-.46h-4.22a.47.47,0,0,0-.47.46,42.54,42.54,0,0,1-.37,5.47A27.06,27.06,0,0,1,158,109a.46.46,0,0,0,.46.58H164A.47.47,0,0,0,164.47,109.07Z"/><path class="cls-2" d="M173.93,104.1a10.14,10.14,0,0,1,.65-3.68,8.41,8.41,0,0,1,1.91-3,9,9,0,0,1,3.08-2,11.81,11.81,0,0,1,8.23,0,9,9,0,0,1,3.08,2,8.41,8.41,0,0,1,1.91,3,10.71,10.71,0,0,1,0,7.35,8.41,8.41,0,0,1-1.91,3,9,9,0,0,1-3.08,2,11.81,11.81,0,0,1-8.23,0,9,9,0,0,1-3.08-2,8.41,8.41,0,0,1-1.91-3A10.12,10.12,0,0,1,173.93,104.1Zm4.59,0a7.34,7.34,0,0,0,.28,2.07,4.58,4.58,0,0,0,.92,1.68,4.28,4.28,0,0,0,1.61,1.12,7,7,0,0,0,4.71,0,4.24,4.24,0,0,0,1.6-1.12,4.31,4.31,0,0,0,.92-1.68,7.34,7.34,0,0,0,.29-2.07,7.24,7.24,0,0,0-.29-2.07A4.24,4.24,0,0,0,186,99.22a7,7,0,0,0-4.71,0,4.28,4.28,0,0,0-1.61,1.12,4.55,4.55,0,0,0-.92,1.69A7.24,7.24,0,0,0,178.52,104.1Z"/><path class="cls-2" d="M196.92,112.88V95.31a.48.48,0,0,1,.48-.46h8.44A9.07,9.07,0,0,1,211,96a4.23,4.23,0,0,1,1.7,3.73,3.93,3.93,0,0,1-1.59,3.38.45.45,0,0,0,.08.76,4.13,4.13,0,0,1,1.36,1,4,4,0,0,1,.69,2.54,5.33,5.33,0,0,1-1.8,4.34,8.35,8.35,0,0,1-5.44,1.5H197.4A.48.48,0,0,1,196.92,112.88Zm4.6-11.09a.47.47,0,0,0,.47.46h3.51a3.46,3.46,0,0,0,2-.43,1.58,1.58,0,0,0,.58-1.38,1.71,1.71,0,0,0-.56-1.41,3.12,3.12,0,0,0-1.89-.44H202a.46.46,0,0,0-.47.45Zm0,7.36a.46.46,0,0,0,.47.45h3.7a4.34,4.34,0,0,0,2.27-.44,1.68,1.68,0,0,0,.67-1.52,1.79,1.79,0,0,0-.65-1.55,3.91,3.91,0,0,0-2.25-.48H202a.47.47,0,0,0-.47.46Z"/><path class="cls-2" d="M221,113.34h-3.65a.47.47,0,0,1-.47-.46V95.31a.47.47,0,0,1,.47-.46H221a.47.47,0,0,1,.47.46v6.3a.47.47,0,0,0,.48.45h7.47a.46.46,0,0,0,.47-.45v-6.3a.47.47,0,0,1,.48-.46H234a.47.47,0,0,1,.47.46v17.57a.47.47,0,0,1-.47.46h-3.64a.47.47,0,0,1-.48-.46v-6.29a.46.46,0,0,0-.47-.46h-7.47a.47.47,0,0,0-.48.46v6.29A.47.47,0,0,1,221,113.34Z"/><path class="cls-2" d="M243.4,113.34h-3.87a.47.47,0,0,1-.47-.46V95.31a.47.47,0,0,1,.47-.46h3.65a.47.47,0,0,1,.47.46v9.9a.47.47,0,0,0,.86.26l7.42-10.42a.47.47,0,0,1,.39-.2h3.87a.47.47,0,0,1,.47.46v17.57a.47.47,0,0,1-.47.46h-3.65a.47.47,0,0,1-.47-.46V103a.48.48,0,0,0-.87-.26l-7.41,10.42A.49.49,0,0,1,243.4,113.34Z"/><path class="cls-2" d="M265.37,113.34h-3.65a.47.47,0,0,1-.47-.46V95.31a.47.47,0,0,1,.47-.46h3.65a.47.47,0,0,1,.47.46v17.57A.47.47,0,0,1,265.37,113.34Zm.77-9.52,7-8.79a.49.49,0,0,1,.38-.18h4.12a.46.46,0,0,1,.38.74l-6.58,8.23a.44.44,0,0,0,0,.55L278,112.6a.46.46,0,0,1-.38.74h-4.12a.49.49,0,0,1-.38-.18l-7-8.79A.44.44,0,0,1,266.14,103.82Z"/><path class="cls-2" d="M279.2,104.06a10,10,0,0,1,.65-3.64,8.41,8.41,0,0,1,1.91-3,9,9,0,0,1,3.1-2,11.19,11.19,0,0,1,4.17-.74,10.89,10.89,0,0,1,3.94.67,8.27,8.27,0,0,1,5,4.86,11.47,11.47,0,0,1,.78,3.9c0,.46,0,1,0,1.71s0,1.43.12,2.24a18.29,18.29,0,0,0,.42,2.57,13.32,13.32,0,0,0,.67,2.09.46.46,0,0,1-.43.63H296a.47.47,0,0,1-.43-.28,12.22,12.22,0,0,1-.61-1.66.48.48,0,0,0-.81-.19,7.15,7.15,0,0,1-1.94,1.5,7.74,7.74,0,0,1-3.67.81,9.3,9.3,0,0,1-3.75-.74,8.88,8.88,0,0,1-2.95-2,9.16,9.16,0,0,1-1.91-3A9.83,9.83,0,0,1,279.2,104.06ZM289,98.81a6.43,6.43,0,0,0-2.41.41,4.24,4.24,0,0,0-1.62,1.12,4.41,4.41,0,0,0-.92,1.69,7.24,7.24,0,0,0-.29,2.07,7.34,7.34,0,0,0,.29,2.07,4.44,4.44,0,0,0,.92,1.68,4.24,4.24,0,0,0,1.62,1.12,6.23,6.23,0,0,0,2.41.41,4.62,4.62,0,0,0,5.09-5.28,6.31,6.31,0,0,0-1.3-3.87A4.65,4.65,0,0,0,289,98.81Z"/></svg>